<svg width="320" height="64" viewBox="0 0 320 64" fill="none" xmlns="http://www.w3.org/2000/svg">
<path d="M109.557 37.0105C109.252 36.6209 108.172 35.1208 108.172 35.1208C107.525 34.2758 107.728 32.9171 107.728 32.9171C108.185 30.2531 106.618 27.4593 106.618 27.4593C104.133 23.4958 100.342 20.4413 100.342 20.4413C99.0225 19.2814 99.2955 17.4527 99.2955 17.4527C99.3609 16.5428 100.016 13.3255 100.016 13.3255C100.654 9.84941 97.8262 11.2139 97.8262 11.2139C97.7609 11.2458 91.9091 15.2432 91.9091 15.2432C88.5094 16.8684 83.0486 20.5072 83.0486 20.5072C76.8604 24.7517 76.3797 31.4645 76.3797 31.4645C76.1097 33.9744 75.2985 35.4357 75.2985 35.4357C74.462 36.7217 73.4743 38.1152 73.4743 38.1152L64.0609 14.5736C62.8032 11.3893 61.3359 8.97822 60.083 7.27072C59.9933 7.14862 59.9056 7.03039 59.8188 6.91604C59.6336 6.6728 59.4542 6.44507 59.2816 6.23285C58.0756 4.75114 57.2186 4.04857 57.2186 4.04857C54.473 1.36812 50.1958 0.436848 46.9784 0.133529C46.7103 0.108333 46.45 0.0870139 46.1975 0.0705398C46.0298 0.0589109 45.866 0.0492201 45.7061 0.0414675C43.8702 -0.0535012 42.6144 0.044375 42.6144 0.044375C27.4009 1.55612 24.4594 8.39387 24.4594 8.39387C23.9525 9.45209 22.9346 10.3679 21.9167 10.9716C21.6788 11.1121 21.4419 11.241 21.2118 11.3553C21.1358 11.3931 21.0597 11.43 20.9846 11.4658C20.8764 11.5172 20.7711 11.5647 20.6678 11.6102C20.5547 11.6596 20.4464 11.7061 20.3421 11.7488C19.9921 11.8922 19.6947 11.9969 19.4949 12.0628C19.3184 12.1209 19.217 12.149 19.217 12.149C14.2056 13.7519 14.3363 12.7973 6.01195 14.53C5.23197 14.6928 4.54851 14.9002 3.95183 15.1425C3.75294 15.2229 3.56282 15.3082 3.38245 15.3964C-1.6689 17.8675 0.434124 23.1072 0.434124 23.1072C3.65836 34.6721 11.8072 38.0512 11.8072 38.0512C12.2518 38.246 12.711 38.4505 13.1722 38.6017C13.6626 38.7635 14.1657 38.9932 14.8364 39.1037C15.2869 39.1773 15.9148 39.2684 16.2433 39.28C16.7376 39.2965 17.2232 39.313 17.6951 39.3275C22.2657 39.47 25.7045 39.5116 25.7045 39.5116C28.4871 39.6114 30.9469 40.128 32.4854 40.5311C32.6473 40.5737 32.7994 40.6144 32.9398 40.6542C33.0811 40.6929 33.2108 40.7307 33.3288 40.7656C33.4468 40.8005 33.554 40.8325 33.6486 40.8625C33.9791 40.9652 34.1595 41.0302 34.1595 41.0302C34.2082 41.0408 34.2726 41.0282 34.3077 41.0302C34.4129 41.034 34.4383 40.9623 34.4588 40.9216C34.4792 40.8809 34.4724 40.8286 34.4666 40.8053C34.4646 40.7976 34.4636 40.7927 34.4636 40.7927C33.436 39.9177 31.2989 39.2781 29.0399 38.8362C28.8897 38.8062 28.7386 38.778 28.5865 38.7499C26.1647 38.3061 23.6785 38.0832 22.3252 38.0328C21.3122 37.995 20.4318 37.9824 20.4318 37.9824C16.3457 37.9146 14.3802 37.5793 12.6135 36.7973L11.5742 36.2934C4.85466 32.891 2.44647 22.0035 2.44647 22.0035C2.48059 18.979 5.01748 17.3529 7.56216 16.3567C7.90145 16.2239 8.24269 16.1047 8.58003 15.9952C11.113 15.1803 13.4598 15.0087 13.4598 15.0087C16.1156 14.5688 18.6642 14.0232 19.6528 13.8052C19.6928 13.7964 19.7298 13.7887 19.764 13.7809C19.9014 13.7509 19.998 13.7286 20.0467 13.7179C20.0711 13.7121 20.0838 13.7102 20.0838 13.7102C20.2515 13.686 20.4162 13.6549 20.5761 13.6172C20.8969 13.5425 21.2011 13.4437 21.4897 13.3255C23.3655 12.5599 24.5589 11.0123 24.9957 10.365C25.0366 10.3039 25.0707 10.2506 25.099 10.207C25.1263 10.1634 25.1478 10.1285 25.1614 10.1052C25.1751 10.083 25.1819 10.0694 25.1819 10.0694C25.2375 9.98799 25.296 9.90562 25.3574 9.82325C25.4198 9.73991 25.4841 9.65657 25.5524 9.57226C25.5972 9.51605 25.647 9.45985 25.6947 9.40267C25.7425 9.34647 25.7874 9.28929 25.8371 9.23308C26.6726 8.27564 27.7744 7.30076 28.4822 6.70478C28.9073 6.3472 29.191 6.12625 29.191 6.12625C34.2248 2.86727 38.2475 1.48926 48.2888 2.29649C54.4155 2.78975 58.4373 7.96942 60.6602 12.0928C60.7772 12.3099 60.8894 12.525 60.9966 12.7343C61.1038 12.9446 61.2062 13.152 61.3037 13.3536C61.4012 13.5561 61.4948 13.7538 61.5826 13.9457C62.4659 15.8683 62.8783 17.2512 62.8783 17.2512C67.8897 32.2388 71.1588 43.7484 71.1588 43.7484C67.8633 50.5706 67.3642 53.7124 69.4165 64C69.825 63.8876 70.2394 63.7887 70.6527 63.6792C71.694 63.404 72.7363 63.1385 73.7941 62.9486C68.927 51.9147 75.5764 39.9467 75.5764 39.9467C76.7853 37.5405 77.3518 33.9492 77.3518 33.9492C77.5039 30.9247 79.3632 27.1948 79.3632 27.1948C82.8458 21.3813 91.9043 16.315 91.9043 16.315C93.6046 14.8857 98.3147 11.9319 98.3147 11.9319C99.7957 11.1518 99.2731 13.4485 99.2731 13.4485C99.0547 13.968 98.5321 17.8229 98.5321 17.8229C98.4015 19.4257 99.1425 20.422 99.1425 20.422C99.8396 21.1584 102.803 24.3195 102.803 24.3195C107.423 28.3906 106.677 33.5955 106.677 33.5955C106.503 35.3718 108.031 36.7692 108.031 36.7692C109.051 38.2141 108.385 40.3867 108.385 40.3867C107.019 43.6234 102.157 43.8317 102.157 43.8317C94.3992 43.7891 91.4372 40.8325 91.4372 40.8325C90.8708 40.4429 90.9576 40.7026 90.9576 40.7026C91.9462 42.0244 94.642 43.6951 95.9621 44.2475C97.3066 44.8105 98.7076 45.0537 99.9322 45.1371C99.939 45.1371 99.9449 45.138 99.9517 45.138C100.095 45.1477 100.236 45.1555 100.374 45.1603C100.385 45.1613 100.395 45.1613 100.407 45.1623C100.541 45.1671 100.672 45.171 100.801 45.1729L102.53 45.1303C102.616 45.1225 102.755 45.1022 102.83 45.0935C103.243 45.046 103.493 44.9907 103.493 44.9907C110.335 43.8647 109.99 38.8352 109.99 38.8352C110.078 37.6471 109.557 37.0105 109.557 37.0105Z" fill="#78B672"/>
<path d="M55.3886 10.1974C54.6038 9.54809 54.517 9.85141 54.517 9.85141C57.1611 12.2324 59.0779 17.3442 59.0779 17.3442C62.0409 23.9281 60.1387 32.0731 60.1387 32.0731C57.2625 43.5091 48.8953 43.2484 48.8953 43.2484C38.6971 43.1186 40.2658 33.3726 40.2658 33.3726C40.8225 29.3462 49.8098 10.241 49.8098 10.241C49.6958 9.67213 49.0903 10.8263 49.0903 10.8263C35.7175 31.2775 38.6083 37.78 38.6083 37.78C43.3243 53.7415 56.8706 42.4044 56.8706 42.4044C63.9957 35.9717 61.5622 22.1954 61.5622 22.1954C59.775 13.5755 55.3886 10.1974 55.3886 10.1974Z" fill="#78B672"/>
<path d="M93.9419 16.5263C96.0566 14.2258 96.2448 16.3742 96.2614 17.1281C96.2614 17.1281 96.3267 22.5859 96.5226 23.0404C96.5226 23.0404 96.588 23.366 96.6864 22.521C96.6864 22.521 97.5785 16.5176 96.8502 15.2113C96.8502 15.2113 96.3598 13.4902 93.6474 15.6338C93.6474 15.6338 90.3784 18.448 88.9734 21.0141C88.9734 21.0141 87.2399 24.0279 88.6234 22.4997C88.6234 22.4997 91.3933 18.6215 93.9419 16.5263Z" fill="#78B672"/>
<path d="M134.276 19.2159V21.1346H131.262V29.2077H129.013V21.1346H126V19.2159H134.276Z" fill="#55669E"/>
<path d="M137.922 19.4328C137.922 19.8267 137.795 20.1364 137.54 20.3619C137.286 20.5886 136.984 20.7008 136.638 20.7008C136.293 20.7008 135.992 20.5886 135.738 20.3619C135.483 20.1364 135.356 19.8267 135.356 19.4328C135.356 19.0389 135.483 18.7292 135.738 18.5036C135.993 18.277 136.294 18.1648 136.638 18.1648C136.984 18.1648 137.286 18.277 137.54 18.5036C137.795 18.7281 137.922 19.0378 137.922 19.4328ZM137.72 29.2077H135.572V21.6245H137.72V29.2077Z" fill="#55669E"/>
<path d="M139.378 25.4728C139.378 24.8005 139.482 24.2124 139.688 23.7074C139.894 23.2023 140.166 22.7825 140.503 22.4458C140.839 22.1091 141.226 21.8555 141.663 21.6829C142.101 21.5091 142.55 21.4239 143.012 21.4239C144.088 21.4239 144.939 21.753 145.564 22.4113C146.189 23.0696 146.501 24.0376 146.501 25.3153C146.501 25.4415 146.495 25.5775 146.487 25.7275C146.477 25.8764 146.466 26.0081 146.457 26.1225H141.584C141.631 26.5649 141.839 26.9156 142.203 27.1757C142.568 27.4347 143.058 27.5653 143.673 27.5653C144.067 27.5653 144.454 27.5286 144.834 27.4574C145.213 27.3851 145.523 27.2966 145.763 27.1908L146.052 28.9369C145.937 28.9941 145.782 29.0513 145.591 29.1095C145.398 29.1678 145.184 29.2175 144.949 29.2606C144.713 29.3038 144.461 29.3405 144.192 29.3685C143.924 29.3977 143.655 29.4117 143.385 29.4117C142.702 29.4117 142.11 29.3113 141.606 29.1095C141.101 28.9077 140.683 28.6304 140.352 28.2808C140.02 27.929 139.774 27.5135 139.616 27.0322C139.458 26.5498 139.378 26.0308 139.378 25.4728ZM144.425 24.6516C144.416 24.4692 144.383 24.2912 144.33 24.1174C144.277 23.9448 144.195 23.7915 144.086 23.6566C143.975 23.5217 143.836 23.4106 143.669 23.3253C143.501 23.2379 143.291 23.1958 143.042 23.1958C142.801 23.1958 142.595 23.2358 142.421 23.3178C142.249 23.3998 142.105 23.5077 141.99 23.6415C141.874 23.7764 141.786 23.9329 141.723 24.1099C141.662 24.289 141.615 24.4692 141.587 24.6516H144.425Z" fill="#55669E"/>
<path d="M152.729 23.527C152.536 23.4795 152.312 23.4288 152.052 23.3759C151.793 23.3231 151.514 23.2961 151.215 23.2961C151.081 23.2961 150.92 23.308 150.733 23.3317C150.545 23.3554 150.403 23.3824 150.308 23.4116V29.2076H148.159V22.027C148.543 21.8932 148.998 21.7659 149.522 21.645C150.047 21.5252 150.631 21.4648 151.274 21.4648C151.388 21.4648 151.528 21.4723 151.691 21.4864C151.855 21.5015 152.017 21.5209 152.181 21.5446C152.345 21.5684 152.507 21.5975 152.671 21.632C152.835 21.6644 152.974 21.7065 153.089 21.754L152.729 23.527Z" fill="#55669E"/>
<path d="M156.421 27.6646C156.815 27.6646 157.093 27.6268 157.257 27.5502C157.42 27.4736 157.501 27.3236 157.501 27.1034C157.501 26.9297 157.396 26.7786 157.185 26.6491C156.974 26.5196 156.651 26.3728 156.219 26.2099C155.882 26.0847 155.577 25.9552 155.304 25.8203C155.03 25.6854 154.797 25.5246 154.604 25.3369C154.413 25.1502 154.263 24.9268 154.158 24.6667C154.052 24.4077 153.999 24.0948 153.999 23.73C153.999 23.0189 154.263 22.4566 154.792 22.0433C155.32 21.63 156.046 21.4239 156.969 21.4239C157.43 21.4239 157.873 21.4638 158.296 21.5458C158.719 21.6278 159.055 21.7163 159.305 21.8124L158.93 23.4851C158.68 23.3976 158.409 23.321 158.115 23.253C157.822 23.1861 157.493 23.1527 157.128 23.1527C156.455 23.1527 156.118 23.3404 156.118 23.716C156.118 23.8012 156.133 23.88 156.162 23.9469C156.191 24.0138 156.247 24.0797 156.335 24.1412C156.422 24.2038 156.539 24.2717 156.689 24.344C156.838 24.4174 157.028 24.4973 157.259 24.5847C157.73 24.7584 158.119 24.9311 158.426 25.0995C158.734 25.27 158.977 25.4523 159.155 25.6487C159.333 25.8462 159.457 26.0642 159.53 26.3038C159.602 26.5444 159.638 26.8218 159.638 27.139C159.638 27.8869 159.356 28.4524 158.794 28.8354C158.231 29.2196 157.437 29.4106 156.407 29.4106C155.735 29.4106 155.176 29.3524 154.728 29.238C154.281 29.1225 153.971 29.0265 153.797 28.9498L154.158 27.2059C154.523 27.3495 154.897 27.4628 155.282 27.5448C155.666 27.6246 156.046 27.6646 156.421 27.6646Z" fill="#55669E"/>
<path d="M160.876 25.4146C160.876 24.8664 160.965 24.3505 161.142 23.8649C161.32 23.3804 161.577 22.9574 161.913 22.5969C162.249 22.2354 162.658 21.9495 163.139 21.7379C163.62 21.5275 164.168 21.4218 164.782 21.4218C165.187 21.4218 165.556 21.4574 165.893 21.5286C166.229 21.602 166.555 21.7045 166.873 21.8394L166.426 23.5552C166.224 23.4786 166.003 23.4106 165.763 23.3523C165.523 23.2951 165.253 23.2671 164.956 23.2671C164.321 23.2671 163.848 23.4635 163.535 23.8574C163.223 24.2513 163.066 24.7703 163.066 25.4146C163.066 26.0977 163.212 26.6265 163.506 27.002C163.799 27.3765 164.311 27.5642 165.041 27.5642C165.3 27.5642 165.581 27.5405 165.878 27.4919C166.176 27.4445 166.45 27.3668 166.7 27.261L167.002 29.0189C166.753 29.1247 166.44 29.2164 166.065 29.293C165.69 29.3696 165.276 29.4074 164.826 29.4074C164.134 29.4074 163.538 29.3038 163.038 29.0977C162.539 28.8916 162.128 28.6099 161.805 28.2538C161.483 27.8988 161.248 27.4779 161.099 26.9934C160.95 26.5099 160.876 25.9833 160.876 25.4146Z" fill="#55669E"/>
<path d="M168.445 29.2077V18.3656L170.594 18.0192V21.6526C170.737 21.6052 170.923 21.5577 171.149 21.5156C171.375 21.4724 171.594 21.4498 171.804 21.4498C172.421 21.4498 172.932 21.5339 173.341 21.7034C173.749 21.8706 174.075 22.1091 174.321 22.4167C174.566 22.7253 174.739 23.0901 174.839 23.512C174.939 23.935 174.99 24.4066 174.99 24.9257V29.2077H172.844V25.1847C172.844 24.4929 172.754 24.003 172.577 23.7149C172.4 23.4268 172.07 23.2821 171.59 23.2821C171.396 23.2821 171.217 23.2994 171.048 23.3329C170.881 23.3674 170.73 23.403 170.595 23.4408V29.2077H168.445Z" fill="#55669E"/>
<path d="M183.41 28.9477C183.045 29.0534 182.573 29.1516 181.996 29.2433C181.419 29.334 180.814 29.3793 180.18 29.3793C179.537 29.3793 178.999 29.2941 178.573 29.1203C178.144 28.9477 177.806 28.7049 177.556 28.3919C177.306 28.08 177.128 27.7077 177.022 27.275C176.916 26.8433 176.864 26.3674 176.864 25.8484V21.6235H179.012V25.5883C179.012 26.28 179.103 26.7797 179.285 27.0872C179.468 27.3959 179.81 27.5491 180.309 27.5491C180.462 27.5491 180.627 27.5415 180.799 27.5264C180.972 27.5124 181.125 27.4962 181.26 27.4757V21.6224H183.409L183.41 28.9477Z" fill="#55669E"/>
<path d="M185.355 19.735L187.504 19.3897V21.6235H190.084V23.4106H187.504V26.0782C187.504 26.5304 187.584 26.8908 187.742 27.1606C187.9 27.4293 188.219 27.5631 188.7 27.5631C188.931 27.5631 189.169 27.5416 189.414 27.4984C189.66 27.4541 189.882 27.3948 190.085 27.3171L190.387 28.9898C190.128 29.0955 189.839 29.1873 189.522 29.2639C189.204 29.3405 188.815 29.3783 188.354 29.3783C187.767 29.3783 187.282 29.2984 186.898 29.1398C186.514 28.9822 186.205 28.761 185.976 28.4772C185.745 28.1934 185.584 27.8502 185.493 27.4455C185.401 27.043 185.356 26.5952 185.356 26.1052L185.355 19.735Z" fill="#55669E"/>
<path d="M197.524 23.0663C197.35 23.2573 197.117 23.5174 196.823 23.8444C196.529 24.1703 196.213 24.5307 195.876 24.9246C195.538 25.3185 195.199 25.7318 194.857 26.1656C194.516 26.5972 194.204 27.016 193.926 27.4196H197.595V29.2066H191.324V27.9386C191.526 27.5922 191.768 27.2199 192.052 26.8217C192.336 26.4224 192.633 26.021 192.945 25.6174C193.257 25.2127 193.567 24.821 193.876 24.4422C194.184 24.0623 194.466 23.7192 194.726 23.4105H191.498V21.6235H197.525V23.0663H197.524Z" fill="#55669E"/>
<path d="M205.972 29.3372C205.424 29.3372 204.879 29.321 204.336 29.2864C203.793 29.2519 203.228 29.1731 202.642 29.0479V19.3605C203.103 19.2731 203.608 19.2083 204.156 19.1652C204.704 19.122 205.212 19.1004 205.684 19.1004C206.319 19.1004 206.902 19.1457 207.436 19.2364C207.969 19.3281 208.428 19.4846 208.813 19.7047C209.197 19.9259 209.498 20.2173 209.715 20.5778C209.931 20.9382 210.038 21.3828 210.038 21.9116C210.038 22.7091 209.654 23.3382 208.885 23.8001C209.519 24.0407 209.952 24.3677 210.183 24.781C210.414 25.1943 210.528 25.6605 210.528 26.1796C210.528 27.2274 210.146 28.0163 209.382 28.544C208.618 29.0728 207.481 29.3372 205.972 29.3372ZM204.834 23.1375H205.929C206.621 23.1375 207.115 23.0479 207.414 22.8709C207.711 22.6929 207.861 22.4069 207.861 22.013C207.861 21.6083 207.705 21.3256 207.399 21.1626C207.091 20.9986 206.639 20.9166 206.043 20.9166C205.852 20.9166 205.645 20.9188 205.424 20.9242C205.203 20.9296 205.006 20.9403 204.834 20.9598V23.1375ZM204.834 24.8533V27.4336C204.997 27.453 205.175 27.4681 205.367 27.4767C205.56 27.4864 205.771 27.4918 206.001 27.4918C206.674 27.4918 207.216 27.3958 207.63 27.2037C208.043 27.0105 208.25 26.6555 208.25 26.1364C208.25 25.6745 208.077 25.3454 207.731 25.149C207.385 24.9515 206.889 24.8533 206.246 24.8533H204.834Z" fill="#55669E"/>
<path d="M216.756 23.527C216.563 23.4795 216.338 23.4288 216.078 23.3759C215.819 23.3231 215.541 23.2961 215.242 23.2961C215.107 23.2961 214.946 23.308 214.76 23.3317C214.572 23.3554 214.429 23.3824 214.334 23.4116V29.2076H212.186V22.027C212.57 21.8932 213.024 21.7659 213.549 21.645C214.073 21.5252 214.657 21.4648 215.3 21.4648C215.415 21.4648 215.555 21.4723 215.718 21.4864C215.882 21.5015 216.044 21.5209 216.208 21.5446C216.372 21.5684 216.534 21.5975 216.698 21.632C216.862 21.6644 217.001 21.7065 217.115 21.754L216.756 23.527Z" fill="#55669E"/>
<path d="M217.766 25.4728C217.766 24.8005 217.87 24.2124 218.076 23.7074C218.282 23.2023 218.555 22.7825 218.891 22.4458C219.227 22.1091 219.614 21.8555 220.051 21.6829C220.489 21.5091 220.938 21.4239 221.4 21.4239C222.476 21.4239 223.327 21.753 223.952 22.4113C224.577 23.0696 224.889 24.0376 224.889 25.3153C224.889 25.4415 224.883 25.5775 224.875 25.7275C224.865 25.8764 224.854 26.0081 224.845 26.1225H219.972C220.019 26.5649 220.227 26.9156 220.591 27.1757C220.956 27.4347 221.446 27.5653 222.061 27.5653C222.455 27.5653 222.843 27.5286 223.222 27.4574C223.601 27.3851 223.911 27.2966 224.152 27.1908L224.44 28.9369C224.325 28.9941 224.17 29.0513 223.979 29.1095C223.786 29.1678 223.572 29.2175 223.337 29.2606C223.102 29.3038 222.849 29.3405 222.58 29.3685C222.312 29.3977 222.043 29.4117 221.773 29.4117C221.09 29.4117 220.498 29.3113 219.994 29.1095C219.489 28.9077 219.071 28.6304 218.74 28.2808C218.408 27.929 218.162 27.5135 218.004 27.0322C217.845 26.5498 217.766 26.0308 217.766 25.4728ZM222.813 24.6516C222.804 24.4692 222.771 24.2912 222.718 24.1174C222.666 23.9448 222.584 23.7915 222.475 23.6566C222.363 23.5217 222.224 23.4106 222.057 23.3253C221.889 23.2379 221.679 23.1958 221.43 23.1958C221.189 23.1958 220.983 23.2358 220.809 23.3178C220.637 23.3998 220.493 23.5077 220.378 23.6415C220.262 23.7764 220.174 23.9329 220.111 24.1099C220.05 24.289 220.003 24.4692 219.975 24.6516H222.813Z" fill="#55669E"/>
<path d="M230.714 25.1847C230.714 24.493 230.624 24.0031 230.447 23.7149C230.268 23.4268 229.964 23.2822 229.531 23.2822C229.396 23.2822 229.257 23.2898 229.113 23.3038C228.969 23.3189 228.83 23.3351 228.696 23.3545V29.2088H226.547V21.8847C226.73 21.8372 226.944 21.7865 227.189 21.7336C227.433 21.6807 227.693 21.6333 227.967 21.589C228.24 21.5459 228.523 21.5124 228.81 21.4887C229.098 21.4649 229.382 21.452 229.662 21.452C230.21 21.452 230.654 21.5221 230.995 21.6613C231.336 21.8016 231.618 21.9678 231.838 22.1588C232.147 21.9387 232.5 21.766 232.899 21.6397C233.297 21.5146 233.665 21.452 234.001 21.452C234.606 21.452 235.104 21.5361 235.493 21.7056C235.883 21.8728 236.193 22.1113 236.425 22.4189C236.656 22.7275 236.814 23.0923 236.899 23.5142C236.987 23.9372 237.029 24.4088 237.029 24.9279V29.2099H234.881V25.1869C234.881 24.4952 234.792 24.0052 234.615 23.7171C234.438 23.429 234.131 23.2844 233.7 23.2844C233.584 23.2844 233.424 23.3135 233.217 23.3718C233.009 23.43 232.84 23.5013 232.705 23.5887C232.773 23.8088 232.816 24.0419 232.834 24.288C232.854 24.5318 232.863 24.7941 232.863 25.0736V29.211H230.716V25.1847H230.714Z" fill="#55669E"/>
<path d="M238.613 25.4728C238.613 24.8005 238.717 24.2124 238.923 23.7074C239.129 23.2023 239.402 22.7825 239.738 22.4458C240.074 22.1091 240.461 21.8555 240.898 21.6829C241.336 21.5091 241.785 21.4239 242.247 21.4239C243.322 21.4239 244.174 21.753 244.799 22.4113C245.424 23.0696 245.735 24.0376 245.735 25.3153C245.735 25.4415 245.73 25.5775 245.721 25.7275C245.712 25.8764 245.701 26.0081 245.692 26.1225H240.819C240.866 26.5649 241.073 26.9156 241.438 27.1757C241.803 27.4347 242.293 27.5653 242.908 27.5653C243.302 27.5653 243.689 27.5286 244.069 27.4574C244.448 27.3851 244.758 27.2966 244.998 27.1908L245.286 28.9369C245.172 28.9941 245.017 29.0513 244.826 29.1095C244.633 29.1678 244.419 29.2175 244.184 29.2606C243.948 29.3038 243.696 29.3405 243.427 29.3685C243.158 29.3977 242.89 29.4117 242.62 29.4117C241.937 29.4117 241.344 29.3113 240.84 29.1095C240.335 28.9077 239.918 28.6304 239.586 28.2808C239.255 27.929 239.009 27.5135 238.85 27.0322C238.693 26.5498 238.613 26.0308 238.613 25.4728ZM243.66 24.6516C243.65 24.4692 243.618 24.2912 243.565 24.1174C243.512 23.9448 243.43 23.7915 243.321 23.6566C243.21 23.5217 243.071 23.4106 242.904 23.3253C242.735 23.2379 242.526 23.1958 242.277 23.1958C242.036 23.1958 241.83 23.2358 241.656 23.3178C241.484 23.3998 241.34 23.5077 241.225 23.6415C241.109 23.7764 241.021 23.9329 240.958 24.1099C240.897 24.289 240.85 24.4692 240.822 24.6516H243.66Z" fill="#55669E"/>
<path d="M251.964 23.527C251.771 23.4795 251.547 23.4288 251.287 23.3759C251.028 23.3231 250.749 23.2961 250.45 23.2961C250.315 23.2961 250.155 23.308 249.968 23.3317C249.78 23.3554 249.638 23.3824 249.543 23.4116V29.2076H247.394V22.027C247.778 21.8932 248.233 21.7659 248.757 21.645C249.282 21.5252 249.865 21.4648 250.509 21.4648C250.623 21.4648 250.763 21.4723 250.926 21.4864C251.09 21.5015 251.252 21.5209 251.416 21.5446C251.58 21.5684 251.742 21.5975 251.906 21.632C252.07 21.6644 252.209 21.7065 252.324 21.754L251.964 23.527Z" fill="#55669E"/>
<path d="M253.477 29.2077V18.3656L255.626 18.0192V21.6526C255.769 21.6052 255.955 21.5577 256.182 21.5156C256.407 21.4724 256.626 21.4498 256.837 21.4498C257.453 21.4498 257.964 21.5339 258.373 21.7034C258.781 21.8706 259.107 22.1091 259.353 22.4167C259.599 22.7253 259.771 23.0901 259.872 23.512C259.973 23.935 260.023 24.4066 260.023 24.9257V29.2077H257.876V25.1847C257.876 24.4929 257.786 24.003 257.609 23.7149C257.431 23.4268 257.102 23.2821 256.622 23.2821C256.429 23.2821 256.25 23.2994 256.08 23.3329C255.913 23.3674 255.762 23.403 255.627 23.4408V29.2077H253.477Z" fill="#55669E"/>
<path d="M264.695 21.4228C265.328 21.4228 265.857 21.4951 266.28 21.6386C266.703 21.7832 267.042 21.9904 267.297 22.2591C267.551 22.5278 267.732 22.8548 267.837 23.239C267.943 23.6232 267.996 24.0516 267.996 24.5221V28.9908C267.688 29.0588 267.26 29.1387 266.713 29.2293C266.165 29.321 265.502 29.3664 264.724 29.3664C264.233 29.3664 263.788 29.3232 263.39 29.2369C262.991 29.1495 262.647 29.0092 262.359 28.8117C262.07 28.6153 261.849 28.3584 261.696 28.0412C261.543 27.7239 261.465 27.3343 261.465 26.8735C261.465 26.4311 261.553 26.0566 261.73 25.7491C261.91 25.4415 262.146 25.1966 262.445 25.0131C262.744 24.8307 263.084 24.698 263.469 24.616C263.853 24.534 264.252 24.494 264.666 24.494C264.944 24.494 265.192 24.5059 265.407 24.5296C265.624 24.5545 265.799 24.5847 265.934 24.6246V24.4228C265.934 24.0581 265.823 23.7645 265.602 23.5422C265.381 23.3221 264.997 23.2109 264.449 23.2109C264.084 23.2109 263.724 23.2379 263.369 23.2908C263.012 23.3437 262.705 23.4181 262.446 23.5142L262.173 21.7854C262.298 21.7465 262.453 21.7055 262.641 21.6624C262.828 21.6192 263.032 21.5814 263.253 21.548C263.474 21.5145 263.707 21.4854 263.952 21.4606C264.197 21.4336 264.444 21.4228 264.695 21.4228ZM264.868 27.7088C265.079 27.7088 265.281 27.7034 265.473 27.6937C265.666 27.6851 265.819 27.67 265.934 27.6505V26.021C265.848 26.0016 265.718 25.9832 265.544 25.9627C265.371 25.9433 265.213 25.9347 265.068 25.9347C264.866 25.9347 264.677 25.9466 264.498 25.9703C264.32 25.994 264.165 26.0404 264.03 26.1074C263.895 26.1743 263.789 26.266 263.713 26.3804C263.636 26.4958 263.598 26.6394 263.598 26.8131C263.598 27.1498 263.711 27.3829 263.937 27.5124C264.163 27.643 264.473 27.7088 264.868 27.7088Z" fill="#55669E"/>
<path d="M271.827 29.2077C271.335 28.2462 270.835 27.1217 270.329 25.8332C269.822 24.5458 269.342 23.1429 268.888 21.6235H271.167C271.264 21.9979 271.377 22.4048 271.506 22.8418C271.637 23.2789 271.772 23.7213 271.912 24.1681C272.052 24.6149 272.192 25.0498 272.333 25.4728C272.473 25.8958 272.61 26.28 272.746 26.6264C272.872 26.28 273.005 25.8958 273.151 25.4728C273.296 25.0498 273.438 24.6149 273.578 24.1681C273.719 23.7213 273.853 23.2789 273.984 22.8418C274.114 22.4048 274.227 21.9979 274.324 21.6235H276.546C276.093 23.1429 275.613 24.5458 275.106 25.8332C274.601 27.1217 274.103 28.2462 273.61 29.2077H271.827Z" fill="#55669E"/>
<path d="M277.122 25.4728C277.122 24.8005 277.226 24.2124 277.432 23.7074C277.638 23.2023 277.911 22.7825 278.247 22.4458C278.583 22.1091 278.97 21.8555 279.407 21.6829C279.845 21.5091 280.294 21.4239 280.756 21.4239C281.832 21.4239 282.683 21.753 283.308 22.4113C283.933 23.0696 284.245 24.0376 284.245 25.3153C284.245 25.4415 284.239 25.5775 284.231 25.7275C284.221 25.8764 284.21 26.0081 284.202 26.1225H279.328C279.376 26.5649 279.583 26.9156 279.948 27.1757C280.312 27.4347 280.802 27.5653 281.417 27.5653C281.811 27.5653 282.199 27.5286 282.578 27.4574C282.957 27.3851 283.267 27.2966 283.508 27.1908L283.796 28.9369C283.681 28.9941 283.526 29.0513 283.335 29.1095C283.142 29.1678 282.928 29.2175 282.693 29.2606C282.458 29.3038 282.205 29.3405 281.936 29.3685C281.668 29.3977 281.399 29.4117 281.129 29.4117C280.446 29.4117 279.854 29.3113 279.35 29.1095C278.845 28.9077 278.427 28.6304 278.096 28.2808C277.764 27.929 277.518 27.5135 277.36 27.0322C277.201 26.5498 277.122 26.0308 277.122 25.4728ZM282.168 24.6516C282.159 24.4692 282.126 24.2912 282.073 24.1174C282.021 23.9448 281.939 23.7915 281.83 23.6566C281.718 23.5217 281.579 23.4106 281.412 23.3253C281.244 23.2379 281.034 23.1958 280.785 23.1958C280.544 23.1958 280.338 23.2358 280.164 23.3178C279.992 23.3998 279.848 23.5077 279.733 23.6415C279.617 23.7764 279.529 23.9329 279.466 24.1099C279.405 24.289 279.358 24.4692 279.33 24.6516H282.168Z" fill="#55669E"/>
<path d="M285.902 21.8836C286.267 21.7778 286.739 21.6796 287.316 21.5879C287.893 21.4973 288.499 21.4509 289.132 21.4509C289.778 21.4509 290.313 21.535 290.74 21.7045C291.167 21.8717 291.506 22.1102 291.757 22.4178C292.006 22.7264 292.184 23.0912 292.29 23.5131C292.396 23.9361 292.448 24.4077 292.448 24.9268V29.2088H290.301V25.1858C290.301 24.4941 290.209 24.0041 290.027 23.716C289.844 23.4279 289.502 23.2833 289.003 23.2833C288.849 23.2833 288.687 23.2908 288.513 23.3048C288.34 23.3199 288.187 23.3361 288.052 23.3556V29.2099H285.903L285.902 21.8836Z" fill="#55669E"/>
<path d="M297.493 25.4728C297.493 24.8005 297.597 24.2124 297.803 23.7074C298.009 23.2023 298.282 22.7825 298.618 22.4458C298.955 22.1091 299.341 21.8555 299.778 21.6829C300.216 21.5091 300.665 21.4239 301.127 21.4239C302.203 21.4239 303.054 21.753 303.679 22.4113C304.304 23.0696 304.616 24.0376 304.616 25.3153C304.616 25.4415 304.61 25.5775 304.602 25.7275C304.592 25.8764 304.581 26.0081 304.573 26.1225H299.699C299.747 26.5649 299.954 26.9156 300.319 27.1757C300.683 27.4347 301.173 27.5653 301.788 27.5653C302.182 27.5653 302.57 27.5286 302.95 27.4574C303.328 27.3851 303.638 27.2966 303.879 27.1908L304.167 28.9369C304.052 28.9941 303.897 29.0513 303.706 29.1095C303.513 29.1678 303.299 29.2175 303.064 29.2606C302.829 29.3038 302.576 29.3405 302.307 29.3685C302.039 29.3977 301.77 29.4117 301.5 29.4117C300.817 29.4117 300.225 29.3113 299.721 29.1095C299.216 28.9077 298.798 28.6304 298.467 28.2808C298.135 27.929 297.889 27.5135 297.731 27.0322C297.572 26.5498 297.493 26.0308 297.493 25.4728ZM302.539 24.6516C302.53 24.4692 302.497 24.2912 302.445 24.1174C302.392 23.9448 302.31 23.7915 302.201 23.6566C302.089 23.5217 301.95 23.4106 301.783 23.3253C301.615 23.2379 301.405 23.1958 301.156 23.1958C300.915 23.1958 300.709 23.2358 300.536 23.3178C300.363 23.3998 300.219 23.5077 300.104 23.6415C299.988 23.7764 299.9 23.9329 299.837 24.1099C299.776 24.289 299.729 24.4692 299.701 24.6516H302.539Z" fill="#55669E"/>
<path d="M308.379 28.0691C308.379 28.5008 308.242 28.831 307.967 29.0565C307.694 29.2821 307.384 29.3954 307.037 29.3954C306.691 29.3954 306.381 29.2821 306.108 29.0565C305.834 28.831 305.696 28.5008 305.696 28.0691C305.696 27.6364 305.833 27.3073 306.108 27.0817C306.381 26.8551 306.691 26.7429 307.037 26.7429C307.384 26.7429 307.694 26.8551 307.967 27.0817C308.242 27.3062 308.379 27.6353 308.379 28.0691Z" fill="#55669E"/>
<path d="M311.768 29.2077C311.37 28.3692 310.978 27.4972 310.592 26.5951C310.205 25.6918 309.838 24.7994 309.489 23.9166C309.142 23.0328 308.821 22.1878 308.53 21.3785C308.237 20.5713 307.986 19.8504 307.773 19.2159H310.253C310.441 19.7943 310.648 20.417 310.878 21.0839C311.106 21.7519 311.34 22.4166 311.577 23.0792C311.816 23.7418 312.042 24.3763 312.26 24.9828C312.478 25.5904 312.686 26.1138 312.885 26.5562C313.073 26.1181 313.278 25.5947 313.501 24.9882C313.725 24.3817 313.955 23.7461 314.192 23.0835C314.431 22.4209 314.663 21.7573 314.891 21.0893C315.12 20.4234 315.328 19.7986 315.517 19.2159H317.912C317.687 19.8537 317.431 20.5745 317.138 21.3806C316.847 22.1868 316.528 23.0317 316.182 23.9156C315.837 24.8004 315.472 25.694 315.088 26.5983C314.704 27.5015 314.313 28.3713 313.917 29.2066L311.768 29.2077Z" fill="#55669E"/>
<path d="M320 28.0691C320 28.5008 319.863 28.831 319.588 29.0565C319.315 29.2821 319.005 29.3954 318.659 29.3954C318.312 29.3954 318.003 29.2821 317.729 29.0565C317.455 28.831 317.317 28.5008 317.317 28.0691C317.317 27.6364 317.454 27.3073 317.729 27.0817C318.003 26.8551 318.312 26.7429 318.659 26.7429C319.005 26.7429 319.315 26.8551 319.588 27.0817C319.863 27.3062 320 27.6353 320 28.0691Z" fill="#55669E"/>
<path d="M126.902 45.8158V36.2233H132.758V37.3736H128.245V40.2237H132.259V41.3449H128.245V44.6676H133.103V45.8158H126.902Z" fill="#55669E"/>
<path d="M135.36 37.3186C135.127 37.3186 134.932 37.2419 134.771 37.0898C134.608 36.9376 134.529 36.7326 134.529 36.4736C134.529 36.2157 134.61 36.0096 134.771 35.8574C134.932 35.7052 135.127 35.6297 135.36 35.6297C135.59 35.6297 135.785 35.7052 135.948 35.8574C136.108 36.0096 136.189 36.2146 136.189 36.4736C136.189 36.7315 136.108 36.9376 135.948 37.0898C135.785 37.2419 135.59 37.3186 135.36 37.3186ZM136.009 45.8157H134.722V38.6189H136.009V45.8157Z" fill="#55669E"/>
<path d="M138.223 38.8262C138.519 38.7528 138.911 38.6751 139.4 38.592C139.889 38.5089 140.452 38.4668 141.089 38.4668C141.661 38.4668 142.135 38.5477 142.514 38.7085C142.892 38.8693 143.194 39.0959 143.421 39.3873C143.646 39.6765 143.805 40.0262 143.898 40.4319C143.989 40.8388 144.036 41.2855 144.036 41.7744V45.8158H142.748V42.0506C142.748 41.6071 142.718 41.2294 142.658 40.9154C142.597 40.6013 142.499 40.3477 142.361 40.1535C142.223 39.9603 142.037 39.82 141.806 39.7316C141.575 39.6441 141.289 39.601 140.948 39.601C140.81 39.601 140.667 39.6064 140.519 39.615C140.371 39.6236 140.231 39.6355 140.097 39.6495C139.963 39.6636 139.843 39.6798 139.736 39.6992C139.631 39.7186 139.555 39.7316 139.509 39.7413V45.8168H138.221V38.8262H138.223Z" fill="#55669E"/>
<path d="M155.482 36.2243H156.825V45.8168H155.482V41.3869H150.79V45.8168H149.448V36.2243H150.79V40.2247H155.482V36.2243Z" fill="#55669E"/>
<path d="M158.721 42.2319C158.721 41.5942 158.814 41.0395 158.998 40.5647C159.184 40.0888 159.428 39.6949 159.732 39.3808C160.035 39.0668 160.387 38.8316 160.784 38.6751C161.181 38.5175 161.586 38.4398 162.002 38.4398C162.971 38.4398 163.714 38.742 164.231 39.3463C164.748 39.9495 165.007 40.8701 165.007 42.1068C165.007 42.1618 165.007 42.2341 165.007 42.3204C165.007 42.4089 165.001 42.4888 164.993 42.5632H160.064C160.119 43.31 160.336 43.8776 160.715 44.265C161.093 44.6525 161.684 44.8467 162.487 44.8467C162.938 44.8467 163.319 44.8078 163.628 44.728C163.936 44.6503 164.169 44.5748 164.327 44.5003L164.507 45.5794C164.35 45.6625 164.075 45.751 163.684 45.8427C163.292 45.9345 162.846 45.9809 162.349 45.9809C161.721 45.9809 161.179 45.8859 160.721 45.6971C160.266 45.5082 159.889 45.246 159.594 44.9147C159.298 44.5823 159.079 44.1884 158.937 43.7309C158.792 43.2755 158.721 42.7758 158.721 42.2319ZM163.662 41.5251C163.671 40.9445 163.525 40.4675 163.225 40.0931C162.925 39.7186 162.512 39.533 161.987 39.533C161.692 39.533 161.43 39.5913 161.205 39.7057C160.978 39.8211 160.787 39.9711 160.631 40.1557C160.473 40.3413 160.351 40.5528 160.264 40.7934C160.175 41.0341 160.118 41.278 160.09 41.5262L163.662 41.5251Z" fill="#55669E"/>
<path d="M167.496 37.3186C167.264 37.3186 167.069 37.2419 166.908 37.0898C166.745 36.9376 166.665 36.7326 166.665 36.4736C166.665 36.2157 166.746 36.0096 166.908 35.8574C167.069 35.7052 167.264 35.6297 167.496 35.6297C167.727 35.6297 167.922 35.7052 168.084 35.8574C168.245 36.0096 168.326 36.2146 168.326 36.4736C168.326 36.7315 168.245 36.9376 168.084 37.0898C167.923 37.2419 167.727 37.3186 167.496 37.3186ZM168.146 45.8157H166.86V38.6189H168.147L168.146 45.8157Z" fill="#55669E"/>
<path d="M170.361 38.8262C170.656 38.7528 171.046 38.6751 171.53 38.592C172.014 38.5089 172.575 38.4668 173.212 38.4668C173.672 38.4668 174.061 38.5283 174.374 38.6535C174.687 38.7787 174.95 38.961 175.162 39.2006C175.228 39.1553 175.328 39.0895 175.466 39.0064C175.604 38.9233 175.776 38.8423 175.979 38.7646C176.181 38.6869 176.407 38.6168 176.656 38.5564C176.906 38.497 177.173 38.4668 177.46 38.4668C178.013 38.4668 178.465 38.5477 178.817 38.7085C179.166 38.8693 179.442 39.0992 179.639 39.3938C179.838 39.6895 179.971 40.0402 180.041 40.4459C180.11 40.8528 180.145 41.2952 180.145 41.7744V45.8158H178.858V42.0506C178.858 41.6265 178.836 41.2618 178.795 40.9575C178.754 40.6531 178.675 40.3995 178.56 40.1956C178.446 39.9927 178.288 39.8427 178.091 39.7456C177.892 39.6485 177.636 39.601 177.322 39.601C176.887 39.601 176.53 39.6592 176.249 39.7736C175.968 39.8891 175.777 39.9927 175.675 40.0844C175.75 40.3251 175.805 40.5884 175.842 40.8744C175.878 41.1603 175.897 41.4603 175.897 41.7733V45.8147H174.609V42.0496C174.609 41.6254 174.585 41.2607 174.54 40.9564C174.494 40.6521 174.414 40.3985 174.299 40.1945C174.184 39.9916 174.026 39.8416 173.828 39.7445C173.629 39.6474 173.378 39.5999 173.074 39.5999C172.944 39.5999 172.805 39.6053 172.658 39.6139C172.51 39.6226 172.37 39.6344 172.236 39.6485C172.102 39.6625 171.98 39.6787 171.869 39.6981C171.758 39.7175 171.684 39.7305 171.648 39.7402V45.8158H170.361V38.8262Z" fill="#55669E"/>
<path d="M188.284 35.0751C188.662 35.0751 188.988 35.1031 189.261 35.1582C189.533 35.2132 189.725 35.265 189.835 35.3103L189.599 36.4175C189.488 36.3625 189.331 36.3096 189.128 36.2589C188.925 36.2082 188.676 36.1834 188.381 36.1834C187.781 36.1834 187.361 36.3474 187.122 36.6744C186.881 37.0013 186.761 37.4427 186.761 37.9952V38.619H189.529V39.6981H186.761V45.8158H185.474V37.9683C185.474 37.0467 185.701 36.3334 186.153 35.8294C186.604 35.3276 187.315 35.0751 188.284 35.0751Z" fill="#55669E"/>
<path d="M196.547 45.6084C196.251 45.6829 195.862 45.7606 195.377 45.8437C194.893 45.9268 194.332 45.9689 193.696 45.9689C193.141 45.9689 192.676 45.8879 192.297 45.7271C191.919 45.5642 191.614 45.3365 191.384 45.0419C191.152 44.7462 190.987 44.3987 190.886 43.9962C190.783 43.5948 190.734 43.1501 190.734 42.6602V38.6199H192.021V42.385C192.021 43.2613 192.159 43.8894 192.437 44.2671C192.714 44.6458 193.18 44.8347 193.835 44.8347C193.973 44.8347 194.116 44.8293 194.264 44.8207C194.412 44.812 194.55 44.7991 194.679 44.785C194.809 44.771 194.926 44.757 195.032 44.743C195.138 44.7289 195.214 44.7138 195.261 44.6955V38.6199H196.548V45.6084H196.547ZM192.325 37.2904C192.113 37.2904 191.926 37.2138 191.765 37.0616C191.605 36.9095 191.524 36.7141 191.524 36.4735C191.524 36.2339 191.605 36.0375 191.765 35.8854C191.926 35.7332 192.113 35.6577 192.325 35.6577C192.537 35.6577 192.725 35.7332 192.885 35.8854C193.046 36.0375 193.127 36.2339 193.127 36.4735C193.127 36.7141 193.046 36.9095 192.885 37.0616C192.725 37.2138 192.537 37.2904 192.325 37.2904ZM194.955 37.2904C194.743 37.2904 194.556 37.2138 194.395 37.0616C194.234 36.9095 194.153 36.7141 194.153 36.4735C194.153 36.2339 194.234 36.0375 194.395 35.8854C194.556 35.7332 194.743 35.6577 194.955 35.6577C195.167 35.6577 195.355 35.7332 195.515 35.8854C195.676 36.0375 195.757 36.2339 195.757 36.4735C195.757 36.7141 195.676 36.9095 195.515 37.0616C195.355 37.2138 195.167 37.2904 194.955 37.2904Z" fill="#55669E"/>
<path d="M201.419 38.4668C201.531 38.4668 201.658 38.4733 201.799 38.4873C201.943 38.5013 202.084 38.5197 202.221 38.5423C202.359 38.5661 202.487 38.5887 202.603 38.6114C202.718 38.6341 202.804 38.6556 202.859 38.674L202.638 39.7952C202.535 39.7585 202.368 39.7143 202.133 39.6625C201.897 39.6118 201.595 39.5869 201.226 39.5869C200.987 39.5869 200.749 39.6118 200.513 39.6625C200.278 39.7143 200.123 39.7477 200.049 39.7672V45.8158H198.761V38.9222C199.066 38.811 199.445 38.7085 199.897 38.6114C200.349 38.5154 200.856 38.4668 201.419 38.4668Z" fill="#55669E"/>
<path d="M209.626 38.4398C210.144 38.4398 210.579 38.5067 210.935 38.6405C211.291 38.7744 211.576 38.9643 211.793 39.2082C212.01 39.4521 212.164 39.7434 212.257 40.0801C212.349 40.4168 212.395 40.788 212.395 41.1949V45.6927C212.284 45.7122 212.13 45.737 211.932 45.7694C211.734 45.8007 211.51 45.8309 211.261 45.8589C211.012 45.887 210.742 45.9118 210.452 45.9345C210.16 45.9582 209.872 45.9701 209.586 45.9701C209.18 45.9701 208.807 45.928 208.465 45.8449C208.123 45.7618 207.829 45.6312 207.58 45.451C207.331 45.2708 207.136 45.0334 206.998 44.7377C206.86 44.442 206.792 44.087 206.792 43.6726C206.792 43.2755 206.873 42.9345 207.034 42.6474C207.195 42.3614 207.414 42.1305 207.691 41.9557C207.969 41.7808 208.291 41.6514 208.66 41.5683C209.029 41.4852 209.417 41.4431 209.822 41.4431C209.952 41.4431 210.086 41.4506 210.224 41.4647C210.362 41.4787 210.494 41.497 210.618 41.5197C210.743 41.5424 210.851 41.5639 210.943 41.5812C211.034 41.6006 211.1 41.6136 211.137 41.6233V41.2629C211.137 41.0503 211.114 40.8398 211.068 40.6326C211.021 40.4244 210.939 40.2398 210.819 40.078C210.699 39.9172 210.535 39.7866 210.328 39.6905C210.119 39.5934 209.851 39.5459 209.518 39.5459C209.094 39.5459 208.724 39.5762 208.404 39.6355C208.086 39.6959 207.848 39.7585 207.691 39.8233L207.539 38.7582C207.705 38.6837 207.983 38.6125 208.369 38.5423C208.754 38.4733 209.174 38.4398 209.626 38.4398ZM209.737 44.8888C210.042 44.8888 210.311 44.8812 210.547 44.8672C210.782 44.8532 210.977 44.8284 211.135 44.7917V42.6452C211.043 42.5999 210.893 42.5611 210.685 42.5276C210.476 42.4952 210.225 42.4801 209.93 42.4801C209.736 42.4801 209.531 42.4942 209.314 42.5222C209.097 42.5503 208.899 42.6064 208.72 42.6949C208.539 42.7834 208.389 42.9032 208.269 43.0553C208.149 43.2075 208.089 43.4082 208.089 43.6575C208.089 44.1183 208.237 44.4399 208.532 44.619C208.829 44.7981 209.229 44.8888 209.737 44.8888Z" fill="#55669E"/>
<path d="M216.684 45.955C215.89 45.9355 215.328 45.7661 214.996 45.4424C214.664 45.1197 214.497 44.6179 214.497 43.9337V35.2973L215.785 35.0761V43.7276C215.785 43.9391 215.804 44.1139 215.84 44.2531C215.876 44.3913 215.937 44.5024 216.02 44.5855C216.103 44.6686 216.214 44.7301 216.352 44.7722C216.491 44.8143 216.661 44.8488 216.864 44.8769L216.684 45.955Z" fill="#55669E"/>
<path d="M220.463 45.955C219.67 45.9355 219.107 45.7661 218.775 45.4424C218.443 45.1197 218.276 44.6179 218.276 43.9337V35.2973L219.564 35.0761V43.7276C219.564 43.9391 219.583 44.1139 219.619 44.2531C219.656 44.3913 219.716 44.5024 219.799 44.5855C219.882 44.6686 219.993 44.7301 220.132 44.7722C220.27 44.8143 220.44 44.8488 220.643 44.8769L220.463 45.955Z" fill="#55669E"/>
<path d="M221.68 42.2319C221.68 41.5942 221.773 41.0395 221.958 40.5647C222.143 40.0888 222.387 39.6949 222.691 39.3808C222.995 39.0668 223.347 38.8316 223.744 38.6751C224.141 38.5175 224.545 38.4398 224.962 38.4398C225.931 38.4398 226.674 38.742 227.19 39.3463C227.707 39.9495 227.966 40.8701 227.966 42.1068C227.966 42.1618 227.966 42.2341 227.966 42.3204C227.966 42.4089 227.961 42.4888 227.952 42.5632H223.024C223.079 43.31 223.296 43.8776 223.675 44.265C224.052 44.6525 224.644 44.8467 225.447 44.8467C225.898 44.8467 226.279 44.8078 226.587 44.728C226.896 44.6503 227.129 44.5748 227.286 44.5003L227.467 45.5794C227.309 45.6625 227.035 45.751 226.643 45.8427C226.252 45.9345 225.806 45.9809 225.308 45.9809C224.68 45.9809 224.139 45.8859 223.681 45.6971C223.225 45.5082 222.849 45.246 222.553 44.9147C222.258 44.5823 222.039 44.1884 221.896 43.7309C221.753 43.2755 221.68 42.7758 221.68 42.2319ZM226.623 41.5251C226.631 40.9445 226.486 40.4675 226.186 40.0931C225.886 39.7186 225.472 39.533 224.948 39.533C224.652 39.533 224.391 39.5913 224.166 39.7057C223.939 39.8211 223.748 39.9711 223.591 40.1557C223.434 40.3413 223.312 40.5528 223.225 40.7934C223.136 41.0341 223.079 41.278 223.051 41.5262L226.623 41.5251Z" fill="#55669E"/>
<path d="M233.099 45.8158V36.2233H238.885V37.3736H234.441V40.2657H238.385V41.401H234.441V45.8169H233.099V45.8158Z" fill="#55669E"/>
<path d="M239.853 42.2319C239.853 41.5942 239.946 41.0395 240.13 40.5647C240.316 40.0888 240.56 39.6949 240.864 39.3808C241.168 39.0668 241.519 38.8316 241.916 38.6751C242.314 38.5175 242.718 38.4398 243.135 38.4398C244.104 38.4398 244.846 38.742 245.363 39.3463C245.88 39.9495 246.139 40.8701 246.139 42.1068C246.139 42.1618 246.139 42.2341 246.139 42.3204C246.139 42.4089 246.134 42.4888 246.125 42.5632H241.197C241.252 43.31 241.469 43.8776 241.847 44.265C242.225 44.6525 242.816 44.8467 243.619 44.8467C244.07 44.8467 244.451 44.8078 244.76 44.728C245.069 44.6503 245.302 44.5748 245.459 44.5003L245.64 45.5794C245.482 45.6625 245.208 45.751 244.816 45.8427C244.424 45.9345 243.979 45.9809 243.481 45.9809C242.853 45.9809 242.311 45.8859 241.854 45.6971C241.398 45.5082 241.022 45.246 240.726 44.9147C240.43 44.5823 240.211 44.1884 240.069 43.7309C239.924 43.2755 239.853 42.7758 239.853 42.2319ZM244.795 41.5251C244.803 40.9445 244.657 40.4675 244.357 40.0931C244.057 39.7186 243.644 39.533 243.12 39.533C242.824 39.533 242.563 39.5913 242.337 39.7057C242.111 39.8211 241.92 39.9711 241.763 40.1557C241.606 40.3413 241.484 40.5528 241.396 40.7934C241.308 41.0341 241.251 41.278 241.223 41.5262L244.795 41.5251Z" fill="#55669E"/>
<path d="M250.15 45.955C249.357 45.9355 248.795 45.7661 248.463 45.4424C248.13 45.1197 247.964 44.6179 247.964 43.9337V35.2973L249.251 35.0761V43.7276C249.251 43.9391 249.271 44.1139 249.306 44.2531C249.343 44.3913 249.404 44.5024 249.487 44.5855C249.57 44.6686 249.681 44.7301 249.819 44.7722C249.957 44.8143 250.128 44.8488 250.331 44.8769L250.15 45.955Z" fill="#55669E"/>
<path d="M253.928 45.955C253.135 45.9355 252.573 45.7661 252.241 45.4424C251.908 45.1197 251.742 44.6179 251.742 43.9337V35.2973L253.029 35.0761V43.7276C253.029 43.9391 253.049 44.1139 253.084 44.2531C253.121 44.3913 253.182 44.5024 253.265 44.5855C253.348 44.6686 253.459 44.7301 253.597 44.7722C253.735 44.8143 253.906 44.8488 254.109 44.8769L253.928 45.955Z" fill="#55669E"/>
<path d="M255.147 42.2319C255.147 41.5942 255.239 41.0395 255.424 40.5647C255.61 40.0888 255.853 39.6949 256.158 39.3808C256.461 39.0668 256.813 38.8316 257.21 38.6751C257.607 38.5175 258.012 38.4398 258.428 38.4398C259.397 38.4398 260.14 38.742 260.657 39.3463C261.174 39.9495 261.433 40.8701 261.433 42.1068C261.433 42.1618 261.433 42.2341 261.433 42.3204C261.433 42.4089 261.427 42.4888 261.419 42.5632H256.49C256.545 43.31 256.762 43.8776 257.141 44.265C257.519 44.6525 258.11 44.8467 258.913 44.8467C259.364 44.8467 259.745 44.8078 260.053 44.728C260.362 44.6503 260.595 44.5748 260.753 44.5003L260.933 45.5794C260.775 45.6625 260.501 45.751 260.11 45.8427C259.718 45.9345 259.272 45.9809 258.775 45.9809C258.147 45.9809 257.605 45.8859 257.147 45.6971C256.692 45.5082 256.315 45.246 256.02 44.9147C255.724 44.5823 255.505 44.1884 255.362 43.7309C255.218 43.2755 255.147 42.7758 255.147 42.2319ZM260.089 41.5251C260.098 40.9445 259.952 40.4675 259.652 40.0931C259.352 39.7186 258.939 39.533 258.414 39.533C258.119 39.533 257.857 39.5913 257.632 39.7057C257.405 39.8211 257.214 39.9711 257.058 40.1557C256.9 40.3413 256.778 40.5528 256.691 40.7934C256.602 41.0341 256.545 41.278 256.517 41.5262L260.089 41.5251Z" fill="#55669E"/>
</svg>
