<svg width="128" height="64" viewBox="0 0 128 64" fill="none" xmlns="http://www.w3.org/2000/svg">
<path d="M109.557 37.0105C109.252 36.6209 108.172 35.1208 108.172 35.1208C107.525 34.2758 107.728 32.9171 107.728 32.9171C108.185 30.2531 106.618 27.4593 106.618 27.4593C104.133 23.4958 100.342 20.4413 100.342 20.4413C99.0225 19.2814 99.2955 17.4527 99.2955 17.4527C99.3609 16.5428 100.016 13.3255 100.016 13.3255C100.654 9.84941 97.8262 11.2139 97.8262 11.2139C97.7609 11.2458 91.9091 15.2432 91.9091 15.2432C88.5094 16.8684 83.0486 20.5072 83.0486 20.5072C76.8604 24.7517 76.3797 31.4645 76.3797 31.4645C76.1097 33.9744 75.2985 35.4357 75.2985 35.4357C74.462 36.7217 73.4743 38.1152 73.4743 38.1152L64.0609 14.5736C62.8032 11.3893 61.3359 8.97822 60.083 7.27072C59.9933 7.14862 59.9056 7.03039 59.8188 6.91604C59.6336 6.6728 59.4542 6.44507 59.2816 6.23285C58.0756 4.75114 57.2186 4.04857 57.2186 4.04857C54.473 1.36812 50.1958 0.436848 46.9784 0.133529C46.7103 0.108333 46.45 0.0870139 46.1975 0.0705398C46.0298 0.0589109 45.866 0.0492201 45.7061 0.0414675C43.8702 -0.0535012 42.6144 0.044375 42.6144 0.044375C27.4009 1.55612 24.4594 8.39387 24.4594 8.39387C23.9525 9.45209 22.9346 10.3679 21.9167 10.9716C21.6788 11.1121 21.4419 11.241 21.2118 11.3553C21.1358 11.3931 21.0597 11.43 20.9846 11.4658C20.8764 11.5172 20.7711 11.5647 20.6678 11.6102C20.5547 11.6596 20.4464 11.7061 20.3421 11.7488C19.9921 11.8922 19.6947 11.9969 19.4949 12.0628C19.3184 12.1209 19.217 12.149 19.217 12.149C14.2056 13.7519 14.3363 12.7973 6.01195 14.53C5.23197 14.6928 4.54851 14.9002 3.95183 15.1425C3.75294 15.2229 3.56282 15.3082 3.38245 15.3964C-1.6689 17.8675 0.434124 23.1072 0.434124 23.1072C3.65836 34.6721 11.8072 38.0512 11.8072 38.0512C12.2518 38.246 12.711 38.4505 13.1722 38.6017C13.6626 38.7635 14.1657 38.9932 14.8364 39.1037C15.2869 39.1773 15.9148 39.2684 16.2433 39.28C16.7376 39.2965 17.2232 39.313 17.6951 39.3275C22.2657 39.47 25.7045 39.5116 25.7045 39.5116C28.4871 39.6114 30.9469 40.128 32.4854 40.5311C32.6473 40.5737 32.7994 40.6144 32.9398 40.6542C33.0811 40.6929 33.2108 40.7307 33.3288 40.7656C33.4468 40.8005 33.554 40.8325 33.6486 40.8625C33.9791 40.9652 34.1595 41.0302 34.1595 41.0302C34.2082 41.0408 34.2726 41.0282 34.3077 41.0302C34.4129 41.034 34.4383 40.9623 34.4588 40.9216C34.4792 40.8809 34.4724 40.8286 34.4666 40.8053C34.4646 40.7976 34.4636 40.7927 34.4636 40.7927C33.436 39.9177 31.2989 39.2781 29.0399 38.8362C28.8897 38.8062 28.7386 38.778 28.5865 38.7499C26.1647 38.3061 23.6785 38.0832 22.3252 38.0328C21.3122 37.995 20.4318 37.9824 20.4318 37.9824C16.3457 37.9146 14.3802 37.5793 12.6135 36.7973L11.5742 36.2934C4.85466 32.891 2.44647 22.0035 2.44647 22.0035C2.48059 18.979 5.01748 17.3529 7.56216 16.3567C7.90145 16.2239 8.24269 16.1047 8.58003 15.9952C11.113 15.1803 13.4598 15.0087 13.4598 15.0087C16.1156 14.5688 18.6642 14.0232 19.6528 13.8052C19.6928 13.7964 19.7298 13.7887 19.764 13.7809C19.9014 13.7509 19.998 13.7286 20.0467 13.7179C20.0711 13.7121 20.0838 13.7102 20.0838 13.7102C20.2515 13.686 20.4162 13.6549 20.5761 13.6172C20.8969 13.5425 21.2011 13.4437 21.4897 13.3255C23.3655 12.5599 24.5589 11.0123 24.9957 10.365C25.0366 10.3039 25.0707 10.2506 25.099 10.207C25.1263 10.1634 25.1478 10.1285 25.1614 10.1052C25.1751 10.083 25.1819 10.0694 25.1819 10.0694C25.2375 9.98799 25.296 9.90562 25.3574 9.82325C25.4198 9.73991 25.4841 9.65657 25.5524 9.57226C25.5972 9.51605 25.647 9.45985 25.6947 9.40267C25.7425 9.34647 25.7874 9.28929 25.8371 9.23308C26.6726 8.27564 27.7744 7.30076 28.4822 6.70478C28.9073 6.3472 29.191 6.12625 29.191 6.12625C34.2248 2.86727 38.2475 1.48926 48.2888 2.29649C54.4155 2.78975 58.4373 7.96942 60.6602 12.0928C60.7772 12.3099 60.8894 12.525 60.9966 12.7343C61.1038 12.9446 61.2062 13.152 61.3037 13.3536C61.4012 13.5561 61.4948 13.7538 61.5826 13.9457C62.4659 15.8683 62.8783 17.2512 62.8783 17.2512C67.8897 32.2388 71.1588 43.7484 71.1588 43.7484C67.8633 50.5706 67.3642 53.7124 69.4165 64C69.825 63.8876 70.2394 63.7887 70.6527 63.6792C71.694 63.404 72.7363 63.1385 73.7941 62.9486C68.927 51.9147 75.5764 39.9467 75.5764 39.9467C76.7853 37.5405 77.3518 33.9492 77.3518 33.9492C77.5039 30.9247 79.3632 27.1948 79.3632 27.1948C82.8458 21.3813 91.9043 16.315 91.9043 16.315C93.6046 14.8857 98.3147 11.9319 98.3147 11.9319C99.7957 11.1518 99.2731 13.4485 99.2731 13.4485C99.0547 13.968 98.5321 17.8229 98.5321 17.8229C98.4015 19.4257 99.1425 20.422 99.1425 20.422C99.8396 21.1584 102.803 24.3195 102.803 24.3195C107.423 28.3906 106.677 33.5955 106.677 33.5955C106.503 35.3718 108.031 36.7692 108.031 36.7692C109.051 38.2141 108.385 40.3867 108.385 40.3867C107.019 43.6234 102.157 43.8317 102.157 43.8317C94.3992 43.7891 91.4372 40.8325 91.4372 40.8325C90.8708 40.4429 90.9576 40.7026 90.9576 40.7026C91.9462 42.0244 94.642 43.6951 95.9621 44.2475C97.3066 44.8105 98.7076 45.0537 99.9322 45.1371C99.939 45.1371 99.9449 45.138 99.9517 45.138C100.095 45.1477 100.236 45.1555 100.374 45.1603C100.385 45.1613 100.395 45.1613 100.407 45.1623C100.541 45.1671 100.672 45.171 100.801 45.1729L102.53 45.1303C102.616 45.1225 102.755 45.1022 102.83 45.0935C103.243 45.046 103.493 44.9907 103.493 44.9907C110.335 43.8647 109.99 38.8352 109.99 38.8352C110.078 37.6471 109.557 37.0105 109.557 37.0105Z" fill="#78B672"/>
<path d="M55.3886 10.1974C54.6038 9.54809 54.517 9.85141 54.517 9.85141C57.1611 12.2324 59.0779 17.3442 59.0779 17.3442C62.0409 23.9281 60.1387 32.0731 60.1387 32.0731C57.2625 43.5091 48.8953 43.2484 48.8953 43.2484C38.6971 43.1186 40.2658 33.3726 40.2658 33.3726C40.8225 29.3462 49.8098 10.241 49.8098 10.241C49.6958 9.67213 49.0903 10.8263 49.0903 10.8263C35.7175 31.2775 38.6083 37.78 38.6083 37.78C43.3243 53.7415 56.8706 42.4044 56.8706 42.4044C63.9957 35.9717 61.5622 22.1954 61.5622 22.1954C59.775 13.5755 55.3886 10.1974 55.3886 10.1974Z" fill="#78B672"/>
<path d="M93.9419 16.5263C96.0566 14.2258 96.2448 16.3742 96.2614 17.1281C96.2614 17.1281 96.3267 22.5859 96.5226 23.0404C96.5226 23.0404 96.588 23.366 96.6864 22.521C96.6864 22.521 97.5785 16.5176 96.8502 15.2113C96.8502 15.2113 96.3598 13.4902 93.6474 15.6338C93.6474 15.6338 90.3784 18.448 88.9734 21.0141C88.9734 21.0141 87.2399 24.0279 88.6234 22.4997C88.6234 22.4997 91.3933 18.6215 93.9419 16.5263Z" fill="#78B672"/>
</svg>
